<?xml version="1.0" encoding="UTF-8"?>
<svg width="436px" height="100px" viewBox="0 0 436 100" version="1.1" xmlns="http://www.w3.org/2000/svg" xmlns:xlink="http://www.w3.org/1999/xlink">
    <!-- Generator: Sketch 43.1 (39012) - http://www.bohemiancoding.com/sketch -->
    <title>Untitled</title>
    <desc>Created with Sketch.</desc>
    <defs></defs>
    <g id="Page-1" stroke="none" stroke-width="1" fill="none" fill-rule="evenodd">
        <g id="bg_logo" fill-rule="nonzero">
            <polygon id="Shape" fill="#000000" points="97.946 82.149 0.352 99.066 0.352 16.977 97.946 0.06"></polygon>
            <path d="M135.396,63.204 C132.795,65.227 129.264,66.239 124.792,66.239 L113.444,66.3 L113.444,62.798 L113.444,62.746 L113.444,29.906 L108.458,29.906 L108.458,25.492 L124.791,25.492 C128.689,25.492 131.765,26.428 134.02,28.299 C136.275,30.176 137.398,32.865 137.398,36.382 C137.398,38.748 136.806,40.697 135.624,42.227 C134.936,43.143 134.076,43.931 133.043,44.575 C134.726,45.304 136.063,46.296 137.055,47.557 C138.586,49.35 139.347,51.569 139.347,54.202 C139.347,58.106 138.029,61.103 135.396,63.204 Z M130.351,31.625 C128.899,30.475 126.989,29.906 124.62,29.906 L118.489,29.906 L118.489,42.802 L124.104,42.802 C126.626,42.802 128.651,42.187 130.181,40.964 C131.631,39.818 132.359,38.249 132.359,36.267 C132.358,34.321 131.689,32.768 130.351,31.625 Z M131.899,49.049 C131.096,48.473 130.099,48.026 128.918,47.699 C127.732,47.375 126.3,47.214 124.62,47.214 L118.489,47.214 L118.489,61.824 L124.506,61.824 C127.677,61.824 130.123,61.178 131.842,59.881 C133.485,58.579 134.306,56.766 134.306,54.435 C134.306,51.99 133.503,50.195 131.899,49.049 Z" id="Shape" fill="#000000"></path>
            <polygon id="Shape" fill="#000000" points="146.054 66.239 146.054 62.747 146.054 29.907 141.123 29.907 141.123 25.493 150.866 25.493 150.866 61.825 155.74 61.825 155.74 66.239 146.054 66.239"></polygon>
            <path d="M180.21,66.239 L180.21,63.372 C179.258,64.063 178.11,64.716 176.771,65.322 C174.784,66.2 172.74,66.643 170.642,66.643 C169.492,66.643 168.441,66.479 167.49,66.151 C166.533,65.829 165.674,65.303 164.909,64.579 C163.492,63.165 162.788,61.292 162.788,58.964 L162.788,41.709 L158.033,41.709 L158.033,37.296 L167.603,37.296 L167.603,58.445 C167.603,60.892 168.785,62.112 171.156,62.112 C172.683,62.112 174.308,61.672 176.027,60.793 C177.668,59.917 179.063,58.902 180.21,57.76 L180.21,40.792 L180.21,37.297 L185.027,37.297 L185.027,61.825 L189.724,61.825 L189.724,66.239 L180.21,66.239 Z" id="Shape" fill="#000000"></path>
            <path d="M196.257,53.342 C196.601,55.944 197.596,58.063 199.238,59.707 C201.225,61.769 203.747,62.798 206.802,62.798 C207.299,62.798 207.922,62.712 208.666,62.541 C209.411,62.371 210.145,62.172 210.871,61.938 C211.597,61.712 212.266,61.486 212.878,61.25 C213.488,61.024 213.929,60.851 214.197,60.738 L215.399,64.69 C214.099,65.187 212.972,65.581 212.019,65.869 C211.063,66.15 210.07,66.422 209.037,66.672 C208.005,66.916 207.109,67.043 206.344,67.043 C202.027,67.043 198.475,65.59 195.687,62.686 C192.855,59.86 191.445,56.23 191.445,51.797 C191.445,47.443 192.819,43.797 195.569,40.85 C198.359,37.987 201.897,36.553 206.174,36.553 C210.376,36.553 213.794,37.967 216.432,40.791 C217.768,42.248 218.782,43.977 219.469,45.979 C220.157,47.988 220.578,50.445 220.729,53.342 L196.257,53.342 L196.257,53.342 Z M212.535,43.372 C210.816,41.727 208.618,40.911 205.943,40.911 C203.115,40.911 200.786,41.944 198.951,44.008 C197.767,45.304 196.944,46.944 196.488,48.934 L215.513,48.934 C214.979,46.717 213.985,44.862 212.535,43.372 Z" id="Shape" fill="#000000"></path>
            <path d="M283.514,55.465 C282.576,57.832 281.154,59.896 279.243,61.655 C275.5,65.09 270.706,66.811 264.86,66.811 C258.671,66.811 253.607,64.842 249.672,60.912 C247.647,58.963 246.147,56.724 245.175,54.201 C244.197,51.684 243.712,48.892 243.712,45.836 C243.712,39.836 245.659,34.834 249.558,30.82 C253.414,26.849 258.268,24.861 264.115,24.861 C267.247,24.861 270.246,25.551 273.113,26.925 C275.095,27.917 276.82,29.142 278.268,30.591 L278.268,28.36 L282.683,28.36 L282.683,40.053 L278.499,40.053 C277.923,38.104 277.183,36.506 276.265,35.263 C275.345,34.02 274.218,32.961 272.884,32.082 C270.171,30.363 267.268,29.504 264.173,29.504 C259.7,29.504 256.013,31.008 253.11,34.029 C250.208,37.049 248.755,40.988 248.755,45.836 C248.755,50.572 250.266,54.492 253.282,57.582 C256.263,60.645 260.14,62.172 264.919,62.172 C268.701,62.172 272.023,61.119 274.889,59.022 C277.412,57.144 278.996,54.571 279.647,51.281 L263.773,51.281 L263.773,46.87 L284.977,46.87 C284.936,50.233 284.449,53.094 283.514,55.465 Z" id="Shape" fill="#000000"></path>
            <path d="M305.032,66.239 L305.032,63.372 C304.462,63.796 303.886,64.17 303.315,64.491 C302.741,64.817 302.129,65.134 301.48,65.438 C299.647,66.239 297.869,66.643 296.15,66.643 C293.436,66.643 291.203,65.762 289.446,64.005 C287.686,62.172 286.809,60.072 286.809,57.701 C286.809,55.029 287.838,52.792 289.905,50.996 C291.969,49.277 294.623,48.416 297.869,48.416 C299.054,48.416 300.392,48.59 301.886,48.933 C302.417,49.082 302.945,49.25 303.459,49.421 C303.974,49.595 304.499,49.811 305.032,50.078 L305.032,45.147 C305.032,43.468 304.518,42.302 303.486,41.654 C302.301,40.892 300.715,40.508 298.729,40.508 C298.195,40.508 297.592,40.572 296.926,40.707 C296.256,40.844 295.604,41.002 294.976,41.195 C294.345,41.385 293.772,41.569 293.254,41.74 C292.742,41.912 292.367,42.033 292.141,42.109 L290.764,38.671 C291.869,38.214 292.836,37.864 293.657,37.611 C294.479,37.366 295.36,37.124 296.296,36.895 C297.229,36.664 298.079,36.551 298.845,36.551 C300.567,36.551 302.093,36.715 303.429,37.037 C304.767,37.365 305.916,37.885 306.869,38.615 C308.854,40.103 309.847,42.279 309.847,45.145 L309.847,61.822 L314.374,61.822 L314.374,66.236 L305.032,66.236 L305.032,66.239 Z M305.032,54.493 C304.117,53.997 303.141,53.533 302.114,53.114 C300.85,52.697 299.606,52.487 298.387,52.487 C296.207,52.487 294.545,53.018 293.403,54.092 C292.255,55.125 291.678,56.404 291.678,57.934 C291.678,59.116 292.141,60.184 293.055,61.139 C293.973,62.051 295.232,62.515 296.838,62.515 C298.215,62.515 299.703,62.113 301.307,61.313 C302.797,60.548 304.04,59.649 305.032,58.616 L305.032,54.493 L305.032,54.493 Z" id="Shape" fill="#000000"></path>
            <polygon id="Shape" fill="#000000" points="319.932 66.239 319.932 62.747 319.932 29.907 315.004 29.907 315.004 25.493 324.748 25.493 324.748 61.825 329.618 61.825 329.618 66.239 319.932 66.239"></polygon>
            <polygon id="Shape" fill="#000000" points="336.555 66.239 336.555 62.747 336.555 29.907 331.627 29.907 331.627 25.493 341.371 25.493 341.371 61.825 346.239 61.825 346.239 66.239 336.555 66.239"></polygon>
            <path d="M352.774,53.342 C353.116,55.944 354.112,58.063 355.754,59.707 C357.742,61.769 360.262,62.798 363.318,62.798 C363.813,62.798 364.435,62.712 365.181,62.541 C365.925,62.371 366.66,62.172 367.388,61.938 C368.11,61.712 368.783,61.486 369.393,61.25 C370.003,61.024 370.443,60.851 370.712,60.738 L371.911,64.69 C370.614,65.187 369.487,65.581 368.533,65.869 C367.576,66.15 366.583,66.422 365.55,66.672 C364.523,66.916 363.623,67.043 362.859,67.043 C358.543,67.043 354.99,65.59 352.2,62.686 C349.371,59.86 347.959,56.23 347.959,51.797 C347.959,47.443 349.336,43.797 352.084,40.85 C354.874,37.987 358.409,36.553 362.689,36.553 C366.891,36.553 370.308,37.967 372.947,40.791 C374.283,42.248 375.297,43.977 375.983,45.979 C376.671,47.988 377.092,50.445 377.245,53.342 L352.774,53.342 L352.774,53.342 Z M369.049,43.372 C367.33,41.727 365.133,40.911 362.459,40.911 C359.631,40.911 357.303,41.944 355.465,44.008 C354.283,45.304 353.459,46.944 353.002,48.934 L372.031,48.934 C371.495,46.717 370.5,44.862 369.049,43.372 Z" id="Shape" fill="#000000"></path>
            <path d="M398.508,41.596 C396.598,41.596 394.982,41.826 393.665,42.282 C392.348,42.739 391.285,43.337 390.484,44.057 C389.679,44.79 389.062,45.626 388.62,46.58 C388.182,47.537 387.963,48.873 387.963,50.594 L387.963,61.824 L393.522,61.824 L393.522,66.238 L383.151,66.238 L383.151,62.746 L383.151,41.709 L377.991,41.709 L377.991,37.296 L387.964,37.296 L387.964,40.162 C388.271,39.781 388.614,39.512 388.995,39.359 C389.377,39.21 389.778,39.017 390.2,38.786 C390.77,38.517 391.401,38.291 392.091,38.103 C392.779,37.908 393.497,37.755 394.239,37.643 C394.982,37.529 395.727,37.448 396.472,37.412 C397.219,37.377 397.914,37.355 398.563,37.355 L400.516,37.412 L400.516,41.596 L398.508,41.596 L398.508,41.596 Z" id="Shape" fill="#000000"></path>
            <polygon id="Shape" fill="#000000" points="431.057 41.709 416.414 80.486 411.833 80.486 417.531 64.578 408.135 41.709 403.379 41.709 403.379 37.296 411.342 37.296 412.549 40.453 419.883 58.445 426.244 41.709 422.348 41.709 422.348 37.296 435.471 37.296 435.471 41.709"></polygon>
            <rect id="Rectangle-path" fill="#000000" x="6.711" y="9.24" width="84.876" height="80.646"></rect>
            <path d="M45.516,73.207 C42.219,75.933 37.648,77.298 31.814,77.298 L17.349,77.371 L17.349,73.207 L17.349,73.128 L17.349,27.471 L11.329,27.471 L11.329,22.678 L31.813,22.678 C36.889,22.678 40.844,23.909 43.688,26.369 C46.527,28.885 47.948,32.43 47.948,36.976 C47.948,40.011 47.189,42.562 45.666,44.601 C44.498,46.225 43.052,47.456 41.325,48.301 C43.915,49.234 46.02,50.7 47.647,52.696 C49.574,55.113 50.539,58.015 50.539,61.42 C50.54,66.56 48.867,70.481 45.516,73.207 Z M39.579,29.985 C37.547,28.309 34.888,27.471 31.587,27.471 L22.831,27.471 L22.831,46.412 L30.902,46.412 C34.405,46.412 37.217,45.545 39.346,43.812 C41.431,42.092 42.471,39.761 42.471,36.829 C42.47,33.94 41.511,31.668 39.579,29.985 Z M41.635,53.877 C39.301,52.1 35.953,51.201 31.587,51.201 L22.831,51.201 L22.831,72.5 L31.435,72.5 C35.801,72.5 39.174,71.553 41.556,69.672 C43.89,67.841 45.059,65.192 45.059,61.739 C45.059,58.227 43.917,55.602 41.635,53.877 Z" id="Shape" fill="#F2F2F2"></path>
            <path d="M86.985,46.413 L86.985,46.913 C86.947,50.177 86.516,52.957 85.695,55.259 C84.869,57.569 83.61,59.571 81.924,61.276 C78.626,64.621 74.391,66.287 69.231,66.287 C63.769,66.287 59.301,64.366 55.828,60.555 C54.045,58.655 52.718,56.485 51.858,54.034 C50.998,51.583 50.57,48.88 50.57,45.906 C50.57,40.083 52.287,35.215 55.727,31.322 C59.129,27.459 63.416,25.532 68.576,25.532 C71.339,25.532 73.987,26.203 76.514,27.535 C78.266,28.501 79.787,29.686 81.064,31.092 L81.064,27.473 L84.961,27.473 L84.961,40.29 L81.27,40.29 C80.761,38.396 80.106,36.84 79.295,35.633 C78.483,34.426 77.49,33.402 76.312,32.54 C73.915,30.876 71.354,30.033 68.626,30.033 C64.68,30.033 61.423,31.502 58.864,34.434 C56.299,37.375 55.019,41.191 55.019,45.905 C55.019,50.509 56.351,54.313 59.015,57.323 C61.646,60.294 65.068,61.774 69.28,61.774 C72.616,61.774 75.551,60.753 78.083,58.713 C80.308,56.897 81.705,54.387 82.279,51.201 L68.271,51.201 L68.271,46.912 L68.271,46.412 L86.985,46.412 L86.985,46.413 Z" id="Shape" fill="#F2F2F2"></path>
        </g>
    </g>
</svg>